<svg xmlns="http://www.w3.org/2000/svg" viewBox="-0 -15 603 603"><style>path{fill:#000;stroke:#000}@media (prefers-color-scheme:dark){path{fill:#fff;stroke:#fff}}</style><path stroke-width="12" stroke-linejoin="round" fill-rule="evenodd" d="M53.3 531.8C49.7 530.0 48.6 525.9 49.4 515.7C49.8 510.6 50.7 503.6 51.5 500.0C52.3 496.4 53.6 489.7 54.6 485.0C55.5 480.3 56.9 475.1 57.6 473.3C58.4 471.6 59.0 468.4 59.0 466.3C59.0 464.1 59.6 460.4 60.4 457.9C61.8 453.4 63.8 446.2 65.9 438.0C66.9 433.8 71.7 411.7 74.5 398.5C75.1 395.2 76.8 388.7 78.2 384.0C79.6 379.3 81.3 372.6 82.0 369.0C82.6 365.4 84.0 360.0 85.0 357.0C87.6 348.9 89.9 340.9 90.6 337.5L91.2 334.4L83.3 333.2C59.7 329.6 51.5 326.9 45.0 320.7C39.3 315.4 38.8 310.3 43.0 302.0C44.8 298.5 48.5 293.2 51.3 290.2C57.3 283.8 72.9 270.9 80.1 266.4C82.9 264.7 86.1 262.3 87.4 261.1C88.6 260.0 90.1 259.0 90.7 259.0C91.3 259.0 92.3 258.3 93.0 257.5C93.7 256.7 97.7 254.0 102.1 251.4C106.4 248.9 110.7 245.9 111.6 244.9C112.5 243.9 113.8 243.0 114.5 243.0C115.1 243.0 118.2 241.1 121.3 238.8C125.5 235.5 127.7 232.8 130.4 227.6C132.4 223.8 134.0 220.2 134.0 219.5C134.0 217.9 137.1 210.6 141.6 201.5C143.4 197.7 146.6 190.7 148.6 186.0C158.1 163.3 164.2 150.6 166.1 148.8C167.2 147.9 168.0 146.6 168.0 145.8C168.0 144.7 174.1 131.9 186.7 106.5C188.7 102.7 190.9 99.1 191.6 98.7C192.4 98.3 193.0 97.1 193.0 96.2C193.0 95.3 193.7 93.2 194.6 91.5C195.5 89.8 199.2 82.7 203.0 75.5C216.2 50.2 221.5 42.8 228.0 40.9C233.3 39.3 236.4 40.4 238.9 44.6C241.6 49.2 241.6 50.5 238.1 60.9C229.8 85.5 224.2 96.0 219.5 96.0C217.5 96.0 216.5 97.1 214.2 101.8C212.6 104.9 209.2 111.3 206.6 116.0C201.7 124.9 201.6 125.1 198.2 131.5C193.9 139.7 182.6 163.1 178.7 172.0C177.4 175.0 174.7 181.1 172.7 185.5C170.7 189.9 168.2 196.4 167.0 199.9C165.8 203.5 164.2 207.3 163.4 208.4C161.7 210.9 161.6 213.0 163.2 213.0C163.9 213.0 167.2 211.2 170.5 209.0C173.8 206.8 177.0 205.0 177.6 205.0C178.1 205.0 180.4 203.7 182.6 202.1C184.8 200.5 187.8 198.8 189.4 198.4C190.9 198.1 192.4 197.1 192.7 196.3C193.0 195.5 196.0 193.5 199.4 191.8C202.7 190.1 206.8 187.7 208.5 186.5C210.2 185.3 216.4 181.7 222.5 178.5C228.6 175.4 234.2 172.2 235.0 171.4C235.9 170.7 238.1 169.4 240.0 168.5C241.9 167.7 244.2 166.5 245.0 166.0C249.8 162.9 264.9 155.2 273.5 151.5C279.0 149.0 286.2 145.7 289.5 144.0C310.9 132.8 329.1 124.0 330.6 124.0C331.3 124.0 336.5 121.7 346.5 116.9C359.9 110.5 368.1 109.2 371.6 113.1C374.1 115.8 373.8 122.1 371.0 125.2C365.6 131.1 363.4 132.9 359.3 135.0C355.2 137.0 354.7 137.1 350.6 135.7C347.0 134.5 345.8 134.4 344.3 135.4C343.3 136.1 340.5 137.4 338.0 138.4C335.5 139.4 331.8 141.2 329.8 142.5C327.8 143.8 325.0 145.2 323.5 145.6C320.6 146.3 284.9 164.2 279.0 167.8C277.1 169.0 274.8 170.0 273.9 170.0C273.0 170.0 269.0 171.9 264.9 174.2C257.4 178.4 247.7 183.7 238.5 188.6C235.8 190.1 231.7 192.5 229.5 194.0C227.3 195.5 223.7 197.5 221.5 198.4C219.3 199.4 216.6 200.9 215.5 201.9C214.4 202.9 211.7 204.6 209.5 205.7C204.4 208.3 196.9 212.1 195.0 213.2C186.8 217.7 183.3 219.8 180.9 221.8C179.3 223.1 176.3 225.1 174.1 226.3C165.8 230.9 153.4 238.4 151.8 239.8C150.9 240.6 149.8 242.5 149.5 244.0C149.2 245.5 148.0 247.6 146.9 248.6C145.9 249.5 145.0 251.2 145.0 252.3C145.0 254.1 140.1 267.6 136.6 275.5C135.8 277.1 134.7 280.1 134.1 282.0C133.4 283.9 131.6 289.1 130.1 293.5C125.0 308.0 122.8 316.0 123.3 317.4C123.7 318.4 127.2 318.9 136.7 319.5C143.7 319.9 152.9 320.8 157.0 321.6C161.1 322.4 167.0 323.0 170.0 323.0C178.1 323.0 225.8 328.2 255.2 332.2C263.9 333.4 271.3 334.1 271.6 333.7C272.5 332.8 273.8 325.5 275.0 315.0C275.5 310.3 277.5 298.9 279.6 289.5C281.6 280.1 283.6 270.0 284.1 267.0C284.6 264.0 285.7 259.8 286.5 257.7C288.7 252.2 288.4 249.2 285.3 246.6C282.6 244.3 282.6 244.2 283.8 237.9C285.2 230.4 295.3 209.4 300.9 202.3C303.0 199.7 305.0 196.5 305.4 195.2C305.8 194.0 307.2 191.7 308.6 190.1C309.9 188.5 311.7 185.7 312.4 183.8C313.2 182.0 316.3 177.9 319.2 174.7C323.7 169.9 325.1 169.0 328.0 169.0C329.9 169.0 333.0 169.9 334.8 171.0C337.9 172.9 338.0 173.2 338.0 179.8C338.0 186.2 335.2 197.1 332.9 199.5C332.4 200.0 332.0 201.4 332.0 202.6C332.0 203.8 330.7 207.7 329.0 211.2C327.4 214.6 326.0 218.1 326.0 218.8C326.0 219.6 325.3 221.6 324.5 223.3C323.0 226.6 313.8 258.3 310.1 273.0C306.7 286.5 303.9 296.4 303.0 298.0C302.6 298.9 301.9 302.5 301.6 306.0C300.8 313.2 298.5 327.2 296.9 333.9C296.4 336.3 296.2 338.5 296.5 338.8C296.8 339.1 299.6 339.7 302.8 340.1C308.7 340.9 324.5 344.3 331.5 346.2C333.7 346.8 338.9 347.9 343.0 348.6C347.1 349.3 353.2 350.5 356.5 351.4C368.9 354.5 380.8 357.8 391.0 360.9C396.8 362.6 404.6 365.0 408.5 366.1C412.4 367.2 417.1 368.7 419.0 369.5C427.2 372.6 440.8 376.3 444.5 376.4C448.9 376.5 447.8 379.0 453.6 356.0C455.0 350.2 457.4 341.4 459.0 336.5C460.5 331.6 462.0 326.1 462.4 324.5C462.8 322.9 464.2 317.7 465.5 313.0C466.9 308.3 469.1 300.0 470.4 294.5C471.7 289.0 473.6 281.8 474.5 278.5C475.4 275.2 476.5 271.1 477.0 269.5C478.7 262.9 482.9 249.2 484.5 245.0C485.4 242.5 486.7 238.4 487.5 235.7C488.2 233.1 490.2 227.6 492.0 223.4C495.5 214.9 495.7 211.5 492.5 215.0C491.4 216.2 488.5 219.0 486.1 221.3C483.6 223.6 480.9 226.3 480.1 227.4C477.4 230.6 444.0 263.2 433.4 273.1C414.5 290.7 409.6 293.4 398.3 292.8C388.3 292.3 386.7 290.7 386.2 280.4C385.9 276.2 386.3 270.3 387.0 267.1C388.7 259.3 403.2 232.4 409.9 224.7C411.5 222.9 413.0 220.5 413.4 219.3C413.8 218.0 414.5 217.0 415.1 217.0C415.6 217.0 417.2 215.1 418.6 212.8C421.7 207.9 438.8 190.0 440.4 190.0C441.0 190.0 442.7 188.8 444.1 187.2C447.5 183.6 463.2 173.0 465.2 173.0C466.0 173.0 467.5 172.1 468.5 171.0C469.5 169.9 470.9 169.0 471.5 169.0C472.2 169.0 473.3 168.3 474.0 167.5C474.7 166.7 477.1 165.5 479.4 164.9C481.6 164.3 485.2 163.1 487.3 162.4C492.5 160.5 496.3 160.7 502.0 163.1C506.6 165.1 510.4 169.2 512.3 174.3C512.7 175.2 514.3 176.3 515.9 176.6C523.7 178.2 524.8 185.7 519.7 202.1C517.7 208.4 515.0 218.3 513.6 224.1C512.1 230.0 510.1 236.8 509.0 239.1C507.9 241.5 507.0 244.7 507.0 246.1C507.0 247.5 506.7 249.0 506.3 249.4C505.8 249.8 505.0 252.3 504.3 254.8C503.7 257.4 502.2 262.6 501.0 266.5C499.8 270.4 498.5 274.9 498.0 276.5C497.5 278.1 496.7 280.9 496.1 282.5C494.4 287.2 490.0 303.3 486.7 316.5C486.2 318.7 485.3 321.6 484.7 323.0C484.1 324.4 483.1 328.0 482.4 331.0C481.3 336.4 475.3 357.9 470.3 374.9C468.6 380.5 468.1 383.9 468.7 384.8C469.2 385.6 471.6 386.9 474.0 387.6C484.3 390.5 503.6 398.0 517.8 404.6C520.7 405.9 523.4 407.0 523.9 407.0C525.3 407.0 541.6 415.6 544.5 417.8C546.0 419.0 547.9 420.0 548.6 420.0C549.3 420.0 552.8 422.8 556.4 426.3L563.0 432.5L563.0 439.8C563.0 446.6 562.8 447.2 559.6 450.7C556.3 454.4 548.6 458.0 544.1 458.0C540.5 458.0 535.2 455.3 534.6 453.1C534.3 451.9 533.8 450.2 533.5 449.1C532.8 446.8 537.4 441.0 539.8 441.0C540.8 441.0 542.1 440.6 542.9 440.1C544.1 439.3 544.1 438.9 543.1 437.6C542.3 436.7 541.1 436.0 540.3 436.0C539.5 436.0 537.0 434.7 534.7 433.1C532.4 431.6 529.4 429.9 528.0 429.5C526.6 429.1 524.6 428.0 523.5 427.1C520.4 424.4 516.2 422.0 514.8 422.0C514.1 422.0 508.8 419.9 503.0 417.4C497.2 414.9 490.1 412.2 487.2 411.4C484.2 410.6 479.7 409.1 477.2 408.1C470.7 405.5 464.1 403.6 463.5 404.1C463.1 404.6 461.2 412.1 455.5 435.7C454.7 439.1 454.0 442.7 454.0 443.7C454.0 444.7 453.3 446.8 452.5 448.4C451.7 449.9 451.0 453.4 451.0 456.0C451.0 458.7 450.5 462.1 449.9 463.7C449.2 465.2 448.4 470.7 448.0 475.7C447.1 487.2 445.7 489.6 439.6 490.5C431.1 491.8 428.0 487.6 428.0 474.8C428.0 465.5 430.0 451.6 431.8 448.3C432.5 447.1 433.0 444.4 433.0 442.3C433.0 440.2 433.9 434.9 435.0 430.5C436.1 426.1 437.0 421.8 437.0 420.9C437.0 420.0 438.4 415.1 440.0 409.9C444.1 397.3 443.9 395.9 437.5 394.3C434.8 393.7 430.7 392.5 428.5 391.6C426.3 390.8 423.3 390.1 421.9 390.0C420.5 390.0 419.0 389.7 418.6 389.3C418.2 388.9 414.9 387.8 411.2 386.9C407.5 385.9 402.0 384.4 399.0 383.5C396.0 382.6 390.8 381.2 387.5 380.4C384.2 379.6 379.8 378.3 377.8 377.5C375.7 376.7 368.5 374.6 361.8 372.9C349.3 369.8 346.8 369.2 332.5 366.4C328.1 365.5 321.8 364.2 318.4 363.4C315.1 362.6 311.2 362.0 309.9 362.0C308.5 362.0 305.0 361.3 302.1 360.4C295.2 358.4 292.0 359.1 292.0 362.8C292.0 364.3 291.4 368.6 290.6 372.5C287.4 387.4 285.8 400.9 285.9 409.6C286.1 418.0 285.9 419.0 283.6 421.6C281.4 424.2 280.6 424.5 275.2 424.5C268.4 424.4 266.2 423.1 263.5 417.3C262.0 414.2 261.9 411.8 262.5 399.6C262.9 391.8 263.9 382.6 264.7 379.0C266.8 369.5 268.3 357.3 267.7 355.5C267.3 354.5 265.7 354.0 263.3 353.9C261.2 353.9 256.1 353.2 252.0 352.4C247.9 351.5 241.1 350.5 236.9 350.0C232.7 349.6 228.4 348.9 227.2 348.6C226.1 348.2 220.8 347.5 215.4 347.0C209.9 346.5 197.2 345.1 187.0 344.0C176.8 342.9 161.5 341.3 153.0 340.5C144.5 339.7 133.5 338.6 128.6 338.0C120.4 336.9 119.6 336.9 117.2 338.7C115.4 340.1 114.0 342.7 112.8 347.1C108.6 361.9 105.5 372.2 101.9 383.3C99.7 389.8 98.0 396.0 98.0 397.0C98.0 398.0 97.6 399.1 97.1 399.4C96.6 399.8 95.9 401.9 95.5 404.3C95.2 406.6 94.2 410.8 93.5 413.5C92.7 416.2 91.2 422.1 90.1 426.5C89.0 430.9 87.2 438.1 86.0 442.5C84.8 446.9 83.4 453.1 82.9 456.3C82.4 459.6 81.8 462.5 81.5 463.0C81.3 463.4 79.2 471.1 77.0 480.1C74.8 489.1 72.5 498.1 72.0 500.1C71.4 502.1 71.0 507.6 71.0 512.4C71.0 520.0 70.7 521.7 68.3 525.8C66.9 528.4 65.0 531.1 64.2 531.8C62.3 533.2 56.4 533.3 53.3 531.8ZM96.7 313.5C98.0 312.6 99.6 309.6 100.5 306.2C101.4 303.1 102.7 299.9 103.3 299.1C104.0 298.3 105.0 295.9 105.7 293.6C109.0 282.2 114.4 268.2 116.3 266.2C117.8 264.6 118.1 263.7 117.3 262.9C116.5 262.1 114.4 263.2 110.0 266.4C106.6 268.9 103.3 271.0 102.6 271.1C102.0 271.1 99.5 272.7 97.0 274.6C94.5 276.4 90.9 279.1 89.0 280.4C79.6 286.7 60.0 304.0 60.0 305.9C60.0 308.1 68.9 311.5 79.0 313.1C92.5 315.3 94.1 315.3 96.7 313.5ZM426.3 254.8C429.2 252.5 433.3 248.6 435.6 246.3C437.8 243.9 440.1 242.0 440.6 242.0C443.0 242.0 493.5 190.1 492.3 188.9C491.5 188.1 471.1 198.9 467.5 202.0C466.4 203.0 462.2 206.6 458.2 210.0C454.3 213.3 451.0 216.4 451.0 216.8C450.9 217.2 448.2 220.4 444.9 224.0C441.6 227.6 438.2 231.8 437.3 233.4C436.5 235.0 433.9 238.6 431.7 241.5C422.2 253.4 418.7 259.0 420.6 259.0C420.9 259.0 423.5 257.1 426.3 254.8Z"/></svg>